<svg xmlns="http://www.w3.org/2000/svg" version="1.1" xmlnsXlink="http://www.w3.org/1999/xlink" xmlnsSvgjs="http://svgjs.dev/svgjs" width="1000" height="589" viewBox="0 0 1000 589"><g transform="matrix(1,0,0,1,-0.6684155480570553,0)"><svg viewBox="0 0 339 200" data-background-color="#ffffff" preserveAspectRatio="xMidYMid meet" height="589" width="1000" xmlns="http://www.w3.org/2000/svg" xmlnsXlink="http://www.w3.org/1999/xlink"><g id="tight-bounds" transform="matrix(1,0,0,1,0.22659287079133605,0)"><svg viewBox="0 0 338.5468142584173 200" height="200" width="338.5468142584173"><g><svg viewBox="0 0 338.5468142584173 200" height="200" width="338.5468142584173"><g><svg viewBox="0 0 338.5468142584173 200" height="200" width="338.5468142584173"><g><svg viewBox="0 0 338.5468142584173 200" height="200" width="338.5468142584173"><g><svg viewBox="0 0 338.5468142584173 200" height="200" width="338.5468142584173"><g transform="matrix(1,0,0,1,0,0)"><svg width="338.5468142584173" viewBox="0.3899993896484375 -36.040000915527344 203.88002014160156 115.58000946044922" height="200" data-palette-color="#fa4238"><svg></svg><svg></svg><svg></svg><g class="undefined-text-0" data-fill-palette-color="primary" id="text-0"><path xmlns="http://www.w3.org/2000/svg" d="M27-20.8v5.08h-18.7v-5.08zM9.86-35.55v35.55h-6.3v-35.55zM31.86-35.55v35.55h-6.27v-35.55zM45.73-35.55v35.55h-6.28v-35.55zM71.88-9.18v0c0-0.96-0.2-1.777-0.6-2.45-0.4-0.68-1.147-1.307-2.24-1.88-1.087-0.58-2.657-1.187-4.71-1.82v0c-1.673-0.507-3.223-1.087-4.65-1.74-1.427-0.647-2.667-1.397-3.72-2.25-1.06-0.86-1.887-1.853-2.48-2.98-0.593-1.133-0.89-2.44-0.89-3.92v0c0-1.94 0.537-3.647 1.61-5.12 1.073-1.467 2.563-2.617 4.47-3.45 1.9-0.833 4.103-1.25 6.61-1.25v0c2.673 0 4.97 0.487 6.89 1.46 1.92 0.967 3.397 2.273 4.43 3.92 1.033 1.64 1.55 3.47 1.55 5.49v0h-6.3c0-1.127-0.24-2.133-0.72-3.02-0.48-0.887-1.207-1.577-2.18-2.07-0.98-0.5-2.227-0.75-3.74-0.75v0c-1.413 0-2.593 0.213-3.54 0.64-0.947 0.42-1.647 0.99-2.1 1.71-0.453 0.713-0.68 1.527-0.68 2.44v0c0 0.86 0.277 1.623 0.83 2.29 0.553 0.673 1.39 1.28 2.51 1.82 1.127 0.547 2.527 1.073 4.2 1.58v0c2.64 0.767 4.83 1.66 6.57 2.68 1.74 1.027 3.037 2.24 3.89 3.64 0.853 1.4 1.28 3.06 1.28 4.98v0c0 2-0.52 3.73-1.56 5.19-1.04 1.453-2.513 2.573-4.42 3.36-1.9 0.78-4.137 1.17-6.71 1.17v0c-1.707 0-3.393-0.233-5.06-0.7-1.66-0.46-3.16-1.16-4.5-2.1-1.34-0.933-2.413-2.107-3.22-3.52-0.807-1.42-1.21-3.09-1.21-5.01v0h6.3c0 1.14 0.193 2.11 0.58 2.91 0.393 0.793 0.94 1.447 1.64 1.96 0.7 0.513 1.517 0.883 2.45 1.11 0.94 0.227 1.947 0.34 3.02 0.34v0c1.413 0 2.593-0.197 3.54-0.59 0.94-0.4 1.65-0.95 2.13-1.65 0.487-0.7 0.73-1.507 0.73-2.42zM98.34-35.55v35.55h-6.25v-35.55zM109.42-35.55v5.08h-28.32v-5.08zM141.6-18.68v1.83c0 3.6-0.617 6.693-1.85 9.28-1.24 2.587-2.963 4.577-5.17 5.97-2.207 1.393-4.79 2.09-7.75 2.09v0c-2.893 0-5.46-0.697-7.7-2.09-2.24-1.393-3.99-3.383-5.25-5.97-1.26-2.587-1.89-5.68-1.89-9.28v0-1.83c0-3.593 0.627-6.69 1.88-9.29 1.253-2.593 2.993-4.587 5.22-5.98 2.233-1.393 4.797-2.09 7.69-2.09v0c2.967 0 5.557 0.697 7.77 2.09 2.213 1.393 3.94 3.387 5.18 5.98 1.247 2.6 1.87 5.697 1.87 9.29zM135.28-16.85v-1.88c0-2.62-0.333-4.827-1-6.62-0.667-1.8-1.637-3.16-2.91-4.08-1.267-0.92-2.797-1.38-4.59-1.38v0c-1.753 0-3.263 0.46-4.53 1.38-1.26 0.92-2.227 2.28-2.9 4.08-0.68 1.793-1.02 4-1.02 6.62v0 1.88c0 2.62 0.343 4.833 1.03 6.64 0.687 1.807 1.663 3.177 2.93 4.11 1.267 0.927 2.78 1.39 4.54 1.39v0c1.807 0 3.34-0.463 4.6-1.39 1.267-0.933 2.223-2.303 2.87-4.11 0.653-1.807 0.98-4.02 0.98-6.64zM147.63-35.55h12.62c2.72 0 5.04 0.407 6.96 1.22 1.92 0.813 3.39 2.02 4.41 3.62 1.013 1.593 1.52 3.553 1.52 5.88v0c0 1.793-0.323 3.363-0.97 4.71-0.653 1.353-1.577 2.49-2.77 3.41-1.2 0.92-2.613 1.63-4.24 2.13v0l-1.9 0.98h-11.26l-0.05-5.05h8.35c1.453 0 2.663-0.253 3.63-0.76 0.967-0.507 1.69-1.197 2.17-2.07 0.48-0.88 0.72-1.883 0.72-3.01v0c0-1.82-0.523-3.273-1.57-4.36-1.053-1.08-2.72-1.62-5-1.62v0h-6.32v30.47h-6.3zM167.82 0l-8.3-15.94 6.62-0.03 8.42 15.65v0.32zM181.08-35.55l8.1 16.75 8.13-16.75h6.96l-11.91 22.49v13.06h-6.35v-13.06l-11.91-22.49z" fill="#fa4238" fill-rule="nonzero" stroke="none" stroke-width="1" stroke-linecap="butt" stroke-linejoin="miter" stroke-miterlimit="10" stroke-dasharray="" stroke-dashoffset="0" font-family="none" font-weight="none" font-size="none" text-anchor="none" style="mix-blend-mode: normal" data-fill-palette-color="primary" opacity="1"></path><path xmlns="http://www.w3.org/2000/svg" d="M17.55 9.03l-10.54 30.49h-6.62l13.38-35.55h4.2zM26.29 39.52l-10.57-30.49-0.46-5.06h4.22l13.43 35.55zM25.88 26.31v5.08h-19.36v-5.08zM36.84 3.97h12.62c2.72 0 5.04 0.407 6.96 1.22 1.92 0.813 3.39 2.02 4.41 3.62 1.013 1.593 1.52 3.553 1.52 5.88v0c0 1.793-0.323 3.363-0.97 4.71-0.653 1.353-1.577 2.49-2.77 3.41-1.2 0.92-2.613 1.63-4.24 2.13v0l-1.9 0.98h-11.26l-0.05-5.05h8.35c1.447 0 2.657-0.253 3.63-0.76 0.967-0.507 1.69-1.197 2.17-2.07 0.48-0.88 0.72-1.883 0.72-3.01v0c0-1.82-0.523-3.273-1.57-4.36-1.053-1.08-2.72-1.62-5-1.62v0h-6.32v30.47h-6.3zM57.03 39.52l-8.3-15.94 6.62-0.03 8.42 15.65v0.32zM96.75 20.84v1.83c0 3.6-0.617 6.693-1.85 9.28-1.24 2.587-2.963 4.577-5.17 5.97-2.2 1.393-4.783 2.09-7.75 2.09v0c-2.893 0-5.46-0.697-7.7-2.09-2.24-1.393-3.99-3.383-5.25-5.97-1.26-2.587-1.89-5.68-1.89-9.28v0-1.83c0-3.593 0.627-6.69 1.88-9.29 1.253-2.593 2.993-4.587 5.22-5.98 2.233-1.393 4.797-2.09 7.69-2.09v0c2.967 0 5.557 0.697 7.77 2.09 2.213 1.393 3.943 3.387 5.19 5.98 1.24 2.6 1.86 5.697 1.86 9.29zM90.43 22.67v-1.88c0-2.62-0.333-4.827-1-6.62-0.667-1.8-1.637-3.16-2.91-4.08-1.267-0.92-2.797-1.38-4.59-1.38v0c-1.753 0-3.263 0.46-4.53 1.38-1.26 0.92-2.227 2.28-2.9 4.08-0.673 1.793-1.01 4-1.01 6.62v0 1.88c0 2.62 0.34 4.833 1.02 6.64 0.687 1.807 1.663 3.177 2.93 4.11 1.273 0.927 2.787 1.39 4.54 1.39v0c1.807 0 3.34-0.463 4.6-1.39 1.267-0.933 2.223-2.303 2.87-4.11 0.653-1.807 0.98-4.02 0.98-6.64zM122.63 3.97h6.3v23.68c0 2.72-0.59 4.997-1.77 6.83-1.18 1.833-2.78 3.213-4.8 4.14-2.013 0.927-4.267 1.39-6.76 1.39v0c-2.553 0-4.837-0.463-6.85-1.39-2.007-0.927-3.583-2.307-4.73-4.14-1.153-1.833-1.73-4.11-1.73-6.83v0-23.68h6.28v23.68c0 1.68 0.283 3.057 0.85 4.13 0.573 1.073 1.39 1.87 2.45 2.39 1.053 0.52 2.297 0.78 3.73 0.78v0c1.467 0 2.72-0.26 3.76-0.78 1.04-0.52 1.847-1.317 2.42-2.39 0.567-1.073 0.85-2.45 0.85-4.13v0zM163.79 3.97v35.55h-6.32l-15.67-25.05v25.05h-6.3v-35.55h6.3l15.72 25.1v-25.1zM181.32 39.52h-7.57l0.05-5.05h7.52c2.18 0 4.003-0.473 5.47-1.42 1.467-0.947 2.573-2.3 3.32-4.06 0.753-1.767 1.13-3.88 1.13-6.34v0-1.86c0-2.52-0.373-4.65-1.12-6.39-0.74-1.74-1.833-3.067-3.28-3.98-1.447-0.913-3.213-1.37-5.3-1.37v0h-7.93v-5.08h7.93c3.173 0 5.96 0.7 8.36 2.1 2.407 1.4 4.283 3.363 5.63 5.89 1.353 2.52 2.03 5.48 2.03 8.88v0 1.81c0 3.42-0.677 6.39-2.03 8.91-1.347 2.527-3.237 4.483-5.67 5.87-2.433 1.393-5.28 2.09-8.54 2.09zM177.27 3.97v35.55h-6.3v-35.55z" fill="#fa4238" fill-rule="nonzero" stroke="none" stroke-width="1" stroke-linecap="butt" stroke-linejoin="miter" stroke-miterlimit="10" stroke-dasharray="" stroke-dashoffset="0" font-family="none" font-weight="none" font-size="none" text-anchor="none" style="mix-blend-mode: normal" data-fill-palette-color="primary" opacity="1"></path><path xmlns="http://www.w3.org/2000/svg" d="M23.41 43.5h6.3v23.68c0 2.72-0.59 4.997-1.77 6.83-1.18 1.833-2.78 3.213-4.8 4.14-2.013 0.927-4.267 1.39-6.76 1.39v0c-2.553 0-4.837-0.463-6.85-1.39-2.007-0.927-3.583-2.307-4.73-4.14-1.147-1.833-1.72-4.11-1.72-6.83v0-23.68h6.27v23.68c0 1.68 0.287 3.057 0.86 4.13 0.567 1.073 1.38 1.87 2.44 2.39 1.053 0.52 2.297 0.78 3.73 0.78v0c1.467 0 2.72-0.26 3.76-0.78 1.04-0.52 1.847-1.317 2.42-2.39 0.567-1.073 0.85-2.45 0.85-4.13v0zM54.91 69.87v0c0-0.96-0.2-1.777-0.6-2.45-0.4-0.68-1.143-1.307-2.23-1.88-1.093-0.58-2.667-1.187-4.72-1.82v0c-1.673-0.507-3.223-1.087-4.65-1.74-1.42-0.647-2.66-1.397-3.72-2.25-1.06-0.86-1.887-1.853-2.48-2.98-0.593-1.133-0.89-2.44-0.89-3.92v0c0-1.94 0.537-3.647 1.61-5.12 1.073-1.467 2.563-2.617 4.47-3.45 1.907-0.833 4.113-1.25 6.62-1.25v0c2.667 0 4.96 0.487 6.88 1.46 1.92 0.967 3.397 2.273 4.43 3.92 1.033 1.64 1.55 3.47 1.55 5.49v0h-6.3c0-1.127-0.24-2.133-0.72-3.02-0.48-0.887-1.207-1.577-2.18-2.07-0.98-0.5-2.227-0.75-3.74-0.75v0c-1.413 0-2.593 0.213-3.54 0.64-0.94 0.42-1.64 0.99-2.1 1.71-0.453 0.713-0.68 1.527-0.68 2.44v0c0 0.86 0.277 1.623 0.83 2.29 0.553 0.673 1.39 1.28 2.51 1.82 1.127 0.547 2.527 1.073 4.2 1.58v0c2.64 0.767 4.83 1.66 6.57 2.68 1.74 1.027 3.037 2.24 3.89 3.64 0.86 1.4 1.29 3.06 1.29 4.98v0c0 2-0.523 3.73-1.57 5.19-1.04 1.453-2.513 2.573-4.42 3.36-1.9 0.78-4.137 1.17-6.71 1.17v0c-1.707 0-3.39-0.233-5.05-0.7-1.66-0.46-3.163-1.16-4.51-2.1-1.34-0.933-2.413-2.107-3.22-3.52-0.807-1.42-1.21-3.09-1.21-5.01v0h6.3c0 1.14 0.197 2.11 0.59 2.91 0.387 0.793 0.93 1.447 1.63 1.96 0.7 0.513 1.52 0.883 2.46 1.11 0.933 0.227 1.937 0.34 3.01 0.34v0c1.413 0 2.593-0.197 3.54-0.59 0.947-0.4 1.66-0.95 2.14-1.65 0.48-0.7 0.72-1.507 0.72-2.42z" fill="#fa4238" fill-rule="nonzero" stroke="none" stroke-width="1" stroke-linecap="butt" stroke-linejoin="miter" stroke-miterlimit="10" stroke-dasharray="" stroke-dashoffset="0" font-family="none" font-weight="none" font-size="none" text-anchor="none" style="mix-blend-mode: normal" data-fill-palette-color="primary" opacity="1"></path></g></svg></g></svg></g></svg></g></svg></g></svg></g><defs></defs></svg><rect width="338.5468142584173" height="200" fill="none" stroke="none" visibility="hidden"></rect></g></svg></g></svg>